# xmcd CD database file
#
# Track frame offsets:
#	150
#	12605
#	25032
#	46090
#	58042
#	68812
#	85207
#	106802
#	118342
#	137710
#	154672
#	165920
#	186150
#	202362
#
# Disc length: 2851 seconds
#
# Revision: 0
# Processed by: cddbd v1.4PL0 Copyright (c) Steve Scherf et al.
# Submitted via: CDex 1.40Beta9
#
DISCID=bd0b210e
DTITLE=Liz Masterson and Sean Blackburn - Western Serenade
DYEAR=2000
DGENRE=Country
TTITLE0=Western Serenade
TTITLE1=Back in the saddle again
TTITLE2=Red River Valley
TTITLE3=Hittin' the trail tonight
TTITLE4=I'm my own Grandpaw
TTITLE5=Cool Water
TTITLE6=El Paso
TTITLE7=Chapo
TTITLE8=I'd Like to be in Texas When They Roundup in the Spring
TTITLE9=(Ghost) Riders in the Sky
TTITLE10=That's Where the West Begins
TTITLE11=When My Blue Moon Turns to Gold Again
TTITLE12=Cattle Call
TTITLE13=Happy Trails
EXTD=YEAR: 2000 ID3G: 2
EXTT0=
EXTT1=
EXTT2=
EXTT3=
EXTT4=
EXTT5=
EXTT6=
EXTT7=
EXTT8=
EXTT9=
EXTT10=
EXTT11=
EXTT12=
EXTT13=
PLAYORDER=
